<?xml version="1.0" encoding="UTF-8"?>
<!DOCTYPE svg PUBLIC "-//W3C//DTD SVG 1.1//EN" "http://www.w3.org/Graphics/SVG/1.1/DTD/svg11.dtd">
<!-- Creator: CorelDRAW 2017 -->
<svg xmlns="http://www.w3.org/2000/svg" xml:space="preserve" width="297mm" height="420mm" version="1.1" style="shape-rendering:geometricPrecision; text-rendering:geometricPrecision; image-rendering:optimizeQuality; fill-rule:evenodd; clip-rule:evenodd"
viewBox="0 0 29700 42000"
 xmlns:xlink="http://www.w3.org/1999/xlink">
 <defs>
  <style type="text/css">
   <![CDATA[
    .fil1 {fill:none}
    .fil0 {fill:white}
    .fil2 {fill:white;fill-rule:nonzero}
   ]]>
  </style>
 </defs>
 <g id="Layer_x0020_1">
  <metadata id="CorelCorpID_0Corel-Layer"/>
  <path class="fil0" d="M14899 19550c90,0 162,73 162,162l0 0 0 1330 -325 0 0 -1330 0 0c0,-90 73,-162 162,-162z"/>
  <path class="fil0" d="M13600 14508c90,0 162,73 162,162l0 0 0 12005c0,90 -73,162 -162,162 -90,0 -162,-73 -162,-162l0 0 0 -12005 0 0c0,-90 73,-162 162,-162z"/>
  <line class="fil1" x1="13763" y1="14670" x2="13763" y2= "14972" />
  <line class="fil1" x1="14087" y1="14748" x2="14087" y2= "15050" />
  <path class="fil0" d="M14250 13281c90,0 162,73 162,162 0,90 -73,162 -162,162 -90,0 -162,-73 -162,-162 0,-90 73,-162 162,-162z"/>
  <line class="fil1" x1="14088" y1="13443" x2="14412" y2= "13443" />
  <line class="fil1" x1="14412" y1="13443" x2="14412" y2= "13745" />
  <line class="fil1" x1="14087" y1="14187" x2="14087" y2= "14490" />
  <line class="fil1" x1="14087" y1="14253" x2="14087" y2= "14556" />
  <path class="fil0" d="M12463 18470l0 0 0 6686c0,90 -73,162 -162,162 -90,0 -162,-73 -162,-162l0 0 0 -6686c0,-1 0,-2 0,-3 2,-88 74,-159 162,-159 90,0 162,73 162,162z"/>
  <path class="fil0" d="M11814 19315l0 0 0 5005 0 0c0,90 -73,162 -162,162 -90,0 -162,-73 -162,-162l0 0 0 -5005c0,-1 0,-2 0,-3 2,-88 74,-159 162,-159 90,0 162,73 162,162z"/>
  <path class="fil0" d="M10840 20226l0 0c0,-1 0,-2 0,-3 2,-88 74,-159 162,-159 90,0 162,73 162,162l0 0 0 3104c0,90 -73,162 -162,162 -90,0 -162,-73 -162,-162l0 0 0 -3104z"/>
  <path class="fil0" d="M13113 26049l0 0c0,93 -73,168 -162,168 -90,0 -162,-75 -162,-168l0 0 0 0 0 -9507c0,-1 0,-3 0,-4 0,-1 0,-3 0,-4 0,-1 0,-3 0,-4 0,-1 0,-3 0,-4 0,-1 0,-3 0,-4 0,-1 0,-3 1,-4 0,-1 0,-3 1,-4 0,-1 0,-3 1,-4 0,-1 1,-3 1,-4 0,-1 1,-3 1,-4 0,-1 1,-3 1,-4l0 0c0,-1 1,-3 1,-4 0,-1 1,-3 1,-4 0,-1 1,-3 1,-4 0,-1 1,-2 1,-4 0,-1 1,-2 2,-4 1,-1 1,-2 2,-4 1,-1 1,-2 2,-4 1,-1 1,-2 2,-4 1,-1 1,-2 2,-3l0 0c1,-1 1,-2 2,-3l0 0c1,-1 1,-2 2,-3l0 0c1,-1 1,-2 2,-3l0 0c1,-1 1,-2 2,-3l0 0c1,-1 1,-2 2,-3 1,-1 2,-2 2,-3l0 0c1,-1 2,-2 2,-3l0 0c1,-1 2,-2 2,-3l0 0c1,-1 2,-2 3,-3 1,-1 2,-2 3,-3 1,-1 2,-2 3,-3l0 0c1,-1 2,-2 3,-3l0 0c1,-1 2,-2 3,-3 1,-1 2,-2 3,-3 1,-1 2,-2 3,-3l0 0c1,-1 2,-2 3,-3 1,-1 2,-2 3,-2l0 0c1,-1 2,-2 3,-2l0 0c1,-1 2,-2 3,-2l0 0c1,-1 2,-2 3,-2l0 0c1,-1 2,-1 3,-2 1,-1 2,-1 3,-2l0 0c1,-1 2,-1 3,-2l0 0c1,-1 2,-1 3,-2l0 0c1,-1 2,-1 3,-2 1,-1 2,-1 4,-2l0 0c1,-1 2,-1 4,-2l0 0c1,-1 2,-1 4,-2 1,-1 2,-1 4,-2l0 0c1,0 2,-1 4,-1l0 0c1,0 2,-1 4,-1l0 0c1,0 3,-1 4,-1l0 0c1,0 3,-1 4,-1l0 0c1,0 3,-1 4,-1l0 0c1,0 3,-1 4,-1 1,0 3,-1 4,-1l0 0c1,0 3,-1 4,-1l0 0c1,0 3,0 4,-1l0 0c1,0 3,0 4,-1l0 0c1,0 3,0 4,0l0 0c1,0 3,0 4,0l0 0c1,0 3,0 4,0l0 0c1,0 3,0 4,0l0 0c1,0 3,0 4,0 1,0 3,0 4,0l0 0c1,0 3,0 4,0l0 0c1,0 3,0 4,0l0 0c1,0 3,0 4,0l0 0c1,0 3,0 4,0l0 0c1,0 3,0 4,1l0 0c1,0 3,0 4,1l0 0c1,0 3,0 4,1l0 0c1,0 3,1 4,1 1,0 3,1 4,1l0 0c1,0 3,1 4,1l0 0c1,0 3,1 4,1l0 0c1,0 3,1 4,1l0 0c1,0 3,1 4,1l0 0c1,0 2,1 4,1l0 0c1,0 2,1 4,2 1,1 2,1 4,2l0 0c1,1 2,1 4,2l0 0c1,1 2,1 4,2 1,1 2,1 3,2l0 0c1,1 2,1 3,2l0 0c1,1 2,1 3,2l0 0c1,1 2,1 3,2 1,1 2,1 3,2l0 0c1,1 2,1 3,2l0 0c1,1 2,2 3,2l0 0c1,1 2,2 3,2l0 0c1,1 2,2 3,2 1,1 2,2 3,3l0 0c1,1 2,2 3,3 1,1 2,2 3,3 1,1 2,2 3,3l0 0c1,1 2,2 3,3l0 0c1,1 2,2 3,3 1,1 2,2 3,3 1,1 2,2 3,3l0 0c1,1 2,2 2,3l0 0c1,1 2,2 2,3l0 0c1,1 2,2 2,3 1,1 2,2 2,3l0 0c1,1 1,2 2,3l0 0c1,1 1,2 2,3l0 0c1,1 1,2 2,3l0 0c1,1 1,2 2,3l0 0c1,1 1,2 2,3 1,1 1,2 2,4 1,1 1,2 2,4 1,1 1,2 2,4 1,1 1,2 1,4 0,1 1,2 1,4 0,1 1,2 1,4 0,1 1,3 1,4 0,1 1,3 1,4l0 0c0,1 1,3 1,4 0,1 1,3 1,4 0,1 1,3 1,4 0,1 1,3 1,4 0,1 0,3 1,4 0,1 0,3 1,4 0,1 0,3 0,4 0,1 0,3 0,4 0,1 0,3 0,4 0,1 0,3 0,4 0,1 0,3 0,4l0 0 0 9507 0 0zm-162 -9669l0 0 0 0z"/>
  <path class="fil0" d="M13113 23195c0,90 -73,162 -162,162 -90,0 -162,-73 -162,-162l0 -1468c0,-90 73,-162 162,-162 90,0 162,73 162,162 0,2 0,5 0,7l0 1461z"/>
  <path class="fil0" d="M14412 27010l0 0c0,90 -73,162 -162,162 -90,0 -162,-73 -162,-162l0 0 0 0 0 -13567 0 0c0,-90 73,-162 162,-162 90,0 162,73 162,162l0 0 0 13567 0 0z"/>
  <path class="fil0" d="M10515 21158l0 0 0 1120 0 0c0,90 -73,162 -162,162 -90,0 -162,-73 -162,-162l0 -3 0 -1118 0 0 0 0 0 0 0 0c0,-1 0,-1 0,-2l0 0 0 0 0 0 0 0 0 0 0 0 0 0 0 0 0 0 0 0 0 0c0,-1 0,-3 0,-4l0 0c0,-1 0,-3 0,-4l0 0c0,-1 0,-3 0,-4l0 0c1,-7 2,-13 3,-20l0 0c0,-1 1,-3 1,-4l0 0c0,-1 1,-3 1,-4l0 0c0,-1 1,-2 1,-4l0 0c0,-1 1,-2 1,-3l0 0c0,-1 1,-2 1,-3l0 0c0,-1 1,-2 1,-3l0 0c0,-1 1,-2 1,-3l0 0c0,-1 1,-2 1,-3l0 0c0,-1 1,-2 1,-3l0 0c1,-1 1,-2 2,-3l0 0c1,-1 1,-2 2,-3l0 0c1,-1 1,-2 2,-3l0 0c1,-1 1,-2 2,-3l0 0c1,-1 1,-2 2,-3l0 0c1,-1 1,-2 2,-3l0 -1c1,-1 1,-2 2,-3l0 -1c1,-1 1,-2 2,-2l0 -1c1,-1 1,-2 2,-3l0 0c1,-1 1,-2 2,-3l0 0c1,-1 1,-2 2,-3l1 -1c1,-1 1,-1 2,-2l1 -1c1,-1 1,-1 2,-2l1 -1c1,-1 1,-1 2,-2l1 -1c1,-1 1,-1 2,-2l1 -1c1,-1 1,-1 2,-2l1 -1c1,-1 1,-1 2,-2l1 -1c1,-1 1,-1 2,-2l1 -1 2 -2 1 -1 2 -2 1 -1c1,-1 1,-1 2,-2l1 -1c1,-1 2,-1 2,-2l1 -1c1,-1 2,-1 2,-2l1 -1c1,0 1,-1 2,-1l1 -1 2 -1 1 -1 2 -1 1 -1c1,0 1,-1 2,-1l2 -1 2 -1 2 -1c1,0 1,-1 2,-1l1 -1c1,0 1,-1 2,-1l2 -1 2 -1 2 -1c1,0 1,0 2,-1l2 -1 2 -1 1 0c1,0 2,-1 2,-1l1 0c1,0 2,-1 3,-1l1 0c1,0 2,0 2,-1l2 -1c1,0 1,0 2,-1 1,0 2,0 3,-1l1 0c1,0 2,0 2,-1l2 0 2 0c1,0 1,0 2,0l1 0c1,0 2,0 3,0l1 0c1,0 2,0 3,0l0 0c1,0 3,0 4,0l0 0 1 0c1,0 2,0 3,0l0 0c1,0 3,0 4,0l0 0c1,0 3,0 4,0l0 0c1,0 3,0 4,0 90,0 162,73 162,162z"/>
  <path class="fil0" d="M13763 23726c0,90 -73,162 -162,162 -90,0 -162,-73 -162,-162l0 -2579c0,-90 73,-162 162,-162 90,0 162,73 162,162l0 2579z"/>
  <path class="fil0" d="M14412 24008c0,90 -73,162 -162,162 -90,0 -162,-73 -162,-162l0 -3186c0,-90 73,-162 162,-162 90,0 162,73 162,162l0 3186z"/>
  <path class="fil0" d="M15061 16301l0 0 0 1120 0 0c0,90 -73,162 -162,162 -90,0 -162,-73 -162,-162l0 -3 0 -1118 0 0 0 0 0 0 0 0c0,-1 0,-1 0,-2l0 0 0 0 0 0 0 0 0 0 0 0 0 0 0 0 0 0 0 0 0 0c0,-1 0,-3 0,-4l0 0c0,-1 0,-3 0,-4l0 0c0,-1 0,-3 0,-4l0 0c1,-7 2,-13 3,-20l0 0c0,-1 1,-3 1,-4l0 0c0,-1 1,-3 1,-4l0 0c0,-1 1,-2 1,-4l0 0c0,-1 1,-2 1,-3l0 0c0,-1 1,-2 1,-3l0 0c0,-1 1,-2 1,-3l0 0c0,-1 1,-2 1,-3l0 0c0,-1 1,-2 1,-3l0 0c0,-1 1,-2 1,-3l0 0c1,-1 1,-2 2,-3l0 0c1,-1 1,-2 2,-3l0 0c1,-1 1,-2 2,-3l0 0c1,-1 1,-2 2,-3l0 0c1,-1 1,-2 2,-3l0 0c1,-1 1,-2 2,-3l0 -1c1,-1 1,-2 2,-3l0 -1c1,-1 1,-2 2,-2l0 -1c1,-1 1,-2 2,-3l0 0c1,-1 1,-2 2,-3l0 0c1,-1 1,-2 2,-3l1 -1c1,-1 1,-1 2,-2l1 -1c1,-1 1,-1 2,-2l1 -1c1,-1 1,-1 2,-2l1 -1c1,-1 1,-1 2,-2l1 -1c1,-1 1,-1 2,-2l1 -1c1,-1 1,-1 2,-2l1 -1c1,-1 1,-1 2,-2l1 -1 2 -2 1 -1 2 -2 1 -1c1,-1 1,-1 2,-2l1 -1c1,-1 2,-1 2,-2l1 -1c1,-1 2,-1 2,-2l1 -1c1,0 1,-1 2,-1l1 -1 2 -1 1 -1 2 -1 1 -1c1,0 1,-1 2,-1l2 -1 2 -1 2 -1c1,0 1,-1 2,-1l1 -1c1,0 1,-1 2,-1l2 -1 2 -1 2 -1c1,0 1,0 2,-1l2 -1 2 -1 1 0c1,0 2,-1 2,-1l1 0c1,0 2,-1 3,-1l1 0c1,0 2,0 2,-1l2 -1c1,0 1,0 2,0 1,0 2,0 3,-1l1 0c1,0 2,0 2,-1l2 0 2 0c1,0 1,0 2,0l1 0c1,0 2,0 3,0l1 0c1,0 2,0 3,0l0 0c1,0 3,0 4,0l0 0 1 0c1,0 2,0 3,0l0 0c1,0 3,0 4,0l0 0c1,0 3,0 4,0l0 0c1,0 3,0 4,0 90,0 162,73 162,162z"/>
  <path class="fil0" d="M15061 20834l0 0 0 6404 0 0 0 0c0,90 -73,162 -162,162 -90,0 -162,-73 -162,-162l0 0 0 0 0 -6404 0 0c0,-90 73,-162 162,-162 90,0 162,73 162,162z"/>
  <path class="fil0" d="M15711 20937l0 0 0 6529 0 0 0 0c0,90 -73,162 -162,162 -90,0 -162,-73 -162,-162l0 0 0 0 0 -6529c0,-90 73,-162 162,-162 90,0 162,73 162,162z"/>
  <path class="fil0" d="M16036 21264l0 0c0,-90 73,-162 162,-162 90,0 162,73 162,162l0 0 0 6357 0 0 0 0c0,90 -73,162 -162,162 -90,0 -162,-73 -162,-162l0 0 0 0 0 -6357z"/>
  <path class="fil0" d="M16686 21663l0 0c0,-90 73,-162 162,-162 90,0 162,73 162,162l0 0 0 5994 0 0 0 0c0,90 -73,162 -162,162 -90,0 -162,-73 -162,-162l0 0 0 0 0 -5994z"/>
  <path class="fil0" d="M17660 22386l0 0 0 5187 0 0 0 0c0,90 -73,162 -162,162 -90,0 -162,-73 -162,-162l0 0 0 0 0 -5187c0,-90 73,-162 162,-162 90,0 162,73 162,162z"/>
  <path class="fil0" d="M18309 27226l0 0c0,90 -73,162 -162,162 -90,0 -162,-73 -162,-162l0 0 0 0 0 -1012 0 -3131c0,-90 73,-162 162,-162 90,0 162,73 162,162l0 0 0 4143 0 0z"/>
  <path class="fil0" d="M18959 23394l0 0 0 3209 0 0 0 0c0,90 -73,162 -162,162 -90,0 -162,-73 -162,-162l0 0 0 0 0 -3209c0,-90 73,-162 162,-162 90,0 162,73 162,162z"/>
  <path class="fil0" d="M19608 23917l0 0 0 1817 0 845 0 0 0 0c0,90 -73,162 -162,162 -90,0 -162,-73 -162,-162l0 0 0 0 0 -845 0 -1817c0,-90 73,-162 162,-162 90,0 162,73 162,162z"/>
  <path class="fil0" d="M19934 24132l0 0c0,-90 73,-162 162,-162 90,0 162,73 162,162l0 0 0 889 0 0 0 1c0,90 -73,162 -162,162 -90,0 -162,-73 -162,-162l0 -1 0 0 0 -889z"/>
  <path class="fil0" d="M20583 23983l0 0c0,-90 73,-162 162,-162 90,0 162,73 162,162l0 0 0 623 0 0c0,90 -73,162 -162,162 -90,0 -162,-73 -162,-162l0 0 0 0 0 -623z"/>
  <path class="fil0" d="M20908 26977l0 0c0,90 -73,162 -162,162 -90,0 -162,-73 -162,-162l0 0 0 0 0 -257c0,-90 73,-162 162,-162 90,0 162,73 162,162l0 0 0 257 0 0z"/>
  <path class="fil0" d="M21557 23827l0 0 0 385 0 0 0 0c0,90 -73,162 -162,162 -90,0 -162,-73 -162,-162l0 0 0 -385 0 0c0,-90 73,-162 162,-162 90,0 162,73 162,162z"/>
  <path class="fil0" d="M22207 23641l0 0 0 216 0 0 0 0c0,90 -73,162 -162,162 -90,0 -162,-73 -162,-162l0 0 0 0 0 -216 0 0c0,-90 73,-162 162,-162 90,0 162,73 162,162z"/>
  <path class="fil0" d="M22694 23305c90,0 162,73 162,162 0,90 -73,162 -162,162 -90,0 -162,-73 -162,-162 0,-90 73,-162 162,-162z"/>
  <path class="fil0" d="M17660 26040c0,90 -73,162 -162,162 -90,0 -162,-73 -162,-162l0 -3654c0,-90 73,-162 162,-162 90,0 162,73 162,162l0 3654z"/>
  <path class="fil0" d="M19446 23754c90,0 162,73 162,162l0 1817c0,90 -73,162 -162,162 -90,0 -162,-73 -162,-162l0 -1817c0,-90 73,-162 162,-162z"/>
  <path class="fil0" d="M19934 25022l0 0 0 0c0,90 73,162 162,162 90,0 162,-73 162,-162l0 0 0 0 0 1760 0 0 0 0c0,90 -73,162 -162,162 -90,0 -162,-73 -162,-162l0 0 0 -1760z"/>
  <path class="fil0" d="M18309 26214c0,90 -73,162 -162,162 -90,0 -162,-73 -162,-162l0 -3131c0,-90 73,-162 162,-162 90,0 162,73 162,162l0 3131z"/>
  <path class="fil0" d="M17010 25866c0,90 -73,162 -162,162 -90,0 -162,-73 -162,-162l0 -4203c0,-90 73,-162 162,-162 90,0 162,73 162,162l0 4203z"/>
  <path class="fil0" d="M16361 25638c0,90 -73,162 -162,162 -90,0 -162,-73 -162,-162l0 -4374c0,-90 73,-162 162,-162 90,0 162,73 162,162l0 4374z"/>
  <path class="fil0" d="M15711 25204c0,90 -73,162 -162,162 -90,0 -162,-73 -162,-162l0 -4268c0,-90 73,-162 162,-162 90,0 162,73 162,162l0 4268z"/>
  <path class="fil0" d="M15061 24758c0,90 -73,162 -162,162 -90,0 -162,-73 -162,-162l0 -3925c0,-90 73,-162 162,-162 90,0 162,73 162,162l0 3925z"/>
  <path class="fil1" d="M10346 14505c-1262,-23 -2072,-479 -3201,-479 -513,0 -933,30 -1391,119"/>
  <path class="fil0" d="M10352 14275c-1262,-23 -2014,-478 -3144,-478 -513,0 -1019,46 -1478,135 150,-370 504,-625 911,-649 2043,-221 2256,-1948 4461,-2336 -553,736 -856,1638 -856,2559 0,317 89,521 106,769z"/>
  <ellipse class="fil0" cx="8064" cy="13269" rx="523" ry="120"/>
  <circle class="fil1" cx="12191" cy="12076" r="527"/>
  <path class="fil0" d="M10346 14505c-1262,-23 -2072,-479 -3201,-479 -513,0 -933,30 -1391,119 190,240 478,387 788,396l1179 22c353,23 671,224 844,533 200,203 475,316 761,312 524,-8 952,-399 1020,-903z"/>
  <path class="fil0" d="M7208 13797c1130,0 1882,456 3144,478 -16,-248 -106,-452 -106,-769 0,-921 303,-1822 856,-2559 -2206,388 -2418,2115 -4461,2336 -407,24 -760,278 -911,649 459,-89 965,-135 1478,-135zm856 -648c289,0 523,54 523,120 0,66 -234,120 -523,120 -289,0 -523,-54 -523,-120 0,-66 234,-120 523,-120z"/>
  <path class="fil0" d="M12191 11874c112,0 203,91 203,203 0,112 -91,203 -203,203 -112,0 -203,-91 -203,-203 0,-112 91,-203 203,-203zm-527 203c0,291 236,527 527,527 291,0 527,-236 527,-527 0,-291 -236,-527 -527,-527 -291,0 -527,236 -527,527z"/>
  <path class="fil0" d="M14737 27943l0 0c0,-1 0,-2 0,-3 2,-88 74,-159 162,-159 90,0 162,73 162,162l0 0 0 3104c0,90 -73,162 -162,162 -90,0 -162,-73 -162,-162l0 0 0 -3104z"/>
  <path class="fil0" d="M16036 28326l0 0c0,-1 0,-2 0,-3 2,-88 74,-159 162,-159 90,0 162,73 162,162l0 0 0 3104c0,90 -73,162 -162,162 -90,0 -162,-73 -162,-162l0 0 0 -3104z"/>
  <path class="fil2" d="M10037 35207l0 -4277 509 0 0 1645 2273 0 0 -1645 514 0 0 4277 -514 0 0 -2148 -2273 0 0 2148 -509 0zm4542 -1328c0,282 95,521 283,717 189,196 419,294 687,294 267,0 495,-98 682,-294 186,-195 280,-435 280,-717 0,-282 -94,-521 -280,-717 -187,-196 -415,-294 -682,-294 -270,0 -500,98 -688,294 -188,195 -282,435 -282,717zm-485 -2c0,-196 36,-382 108,-556 73,-173 177,-329 316,-466 139,-137 295,-240 471,-311 176,-71 362,-107 561,-107 194,0 379,36 553,108 174,73 332,177 475,316 139,135 243,288 316,463 72,175 108,359 108,553 0,195 -36,379 -108,551 -73,172 -177,326 -316,460 -143,141 -301,247 -478,322 -176,74 -360,111 -550,111 -197,0 -384,-37 -560,-110 -176,-73 -333,-177 -472,-314 -139,-141 -243,-296 -316,-468 -72,-171 -108,-355 -108,-552zm3618 1330l0 -2674 449 0 0 413c115,-171 253,-299 415,-383 162,-84 349,-126 560,-126 316,0 562,84 739,251 177,168 266,401 266,699l0 1820 -467 0 0 -1574c0,-271 -57,-472 -171,-603 -115,-132 -290,-197 -527,-197 -137,0 -261,25 -373,75 -112,50 -204,120 -279,211 -56,70 -97,151 -121,239 -25,90 -37,245 -37,468l0 1382 -455 0zm3339 0l0 -4529 461 0 0 3067 1286 -1212 610 0 -1333 1224 1453 1450 -639 0 -1377 -1412 0 1412 -461 0z"/>
 </g>
</svg>
