<?xml version="1.0" encoding="UTF-8"?>
<!DOCTYPE svg PUBLIC "-//W3C//DTD SVG 1.1//EN" "http://www.w3.org/Graphics/SVG/1.1/DTD/svg11.dtd">
<!-- Creator: CorelDRAW 2017 -->
<svg xmlns="http://www.w3.org/2000/svg" xml:space="preserve" width="420mm" height="297mm" version="1.1" style="shape-rendering:geometricPrecision; text-rendering:geometricPrecision; image-rendering:optimizeQuality; fill-rule:evenodd; clip-rule:evenodd"
viewBox="0 0 42000 29700"
 xmlns:xlink="http://www.w3.org/1999/xlink">
 <defs>
  <style type="text/css">
   <![CDATA[
    .fil1 {fill:none}
    .fil3 {fill:#1A1A1A}
    .fil4 {fill:#333333}
    .fil2 {fill:#4D4D4D}
    .fil5 {fill:#666666}
    .fil0 {fill:#999999}
    .fil6 {fill:#4D4D4D;fill-rule:nonzero}
   ]]>
  </style>
 </defs>
 <g id="Layer_x0020_1">
  <metadata id="CorelCorpID_0Corel-Layer"/>
  <path class="fil0" d="M11330 14516c58,0 106,47 106,106l0 0 0 867 -212 0 0 -867 0 0c0,-58 47,-106 106,-106z"/>
  <path class="fil0" d="M10484 11231c58,0 106,47 106,106l0 0 0 7822c0,58 -47,106 -106,106 -58,0 -106,-47 -106,-106l0 0 0 -7822 0 0c0,-58 47,-106 106,-106z"/>
  <line class="fil1" x1="10589" y1="11336" x2="10590" y2= "11533" />
  <line class="fil1" x1="10801" y1="11387" x2="10801" y2= "11584" />
  <path class="fil1" d="M10907 10431c58,0 106,47 106,106 0,58 -47,106 -106,106 -58,0 -106,-47 -106,-106 0,-58 47,-106 106,-106z"/>
  <line class="fil1" x1="10801" y1="10537" x2="11013" y2= "10537" />
  <line class="fil1" x1="11013" y1="10537" x2="11013" y2= "10734" />
  <line class="fil1" x1="10801" y1="11022" x2="10801" y2= "11219" />
  <line class="fil1" x1="10801" y1="11065" x2="10801" y2= "11262" />
  <path class="fil0" d="M9743 13812l0 0 0 4357c0,58 -47,106 -106,106 -58,0 -106,-47 -106,-106l0 0 0 -4357c0,-1 0,-1 0,-2 1,-58 48,-104 106,-104 58,0 106,47 106,106z"/>
  <path class="fil0" d="M9320 14363l0 0 0 3261 0 0c0,58 -47,106 -106,106 -58,0 -106,-47 -106,-106l0 0 0 -3261c0,-1 0,-1 0,-2 1,-58 48,-104 106,-104 58,0 106,47 106,106z"/>
  <path class="fil0" d="M8685 14956l0 0c0,-1 0,-1 0,-2 1,-58 48,-104 106,-104 58,0 106,47 106,106l0 0 0 2023c0,58 -47,106 -106,106 -58,0 -106,-47 -106,-106l0 0 0 -2023z"/>
  <path class="fil0" d="M10166 18751l0 0c0,60 -47,109 -106,109 -58,0 -106,-49 -106,-109l0 0 0 0 0 -6195c0,-1 0,-2 0,-3 0,-1 0,-2 0,-3 0,-1 0,-2 0,-3 0,-1 0,-2 0,-3 0,-1 0,-2 0,-3 0,-1 0,-2 0,-3 0,-1 0,-2 0,-3 0,-1 0,-2 1,-3 0,-1 0,-2 1,-3 0,-1 0,-2 1,-3 0,-1 0,-2 1,-3l0 0c0,-1 0,-2 1,-3 0,-1 1,-2 1,-2 0,-1 1,-2 1,-2 0,-1 1,-2 1,-2 0,-1 1,-2 1,-2 0,-1 1,-2 1,-2 0,-1 1,-2 1,-2 0,-1 1,-2 1,-2 0,-1 1,-2 1,-2l0 0c0,-1 1,-1 1,-2l0 0c0,-1 1,-1 1,-2l0 0c0,-1 1,-1 1,-2l0 0c0,-1 1,-1 1,-2l0 0c0,-1 1,-1 1,-2 0,-1 1,-1 2,-2l0 0c1,-1 1,-1 2,-2l0 0c1,-1 1,-1 2,-2l0 0c1,-1 1,-1 2,-2 1,-1 1,-1 2,-2 1,-1 1,-1 2,-2l0 0c1,-1 1,-1 2,-2l0 0c1,-1 1,-1 2,-2 1,-1 1,-1 2,-2 1,-1 1,-1 2,-2l0 0c1,-1 1,-1 2,-2 1,-1 1,-1 2,-2l0 0c1,-1 1,-1 2,-2l0 0c1,-1 1,-1 2,-2l0 0c1,0 1,-1 2,-1l0 0c1,0 1,-1 2,-1 1,0 1,-1 2,-1l0 0c1,0 1,-1 2,-1l0 0c1,0 1,-1 2,-1l0 0c1,0 2,-1 2,-1 1,0 2,-1 2,-1l0 0c1,0 2,-1 2,-1l0 0c1,0 2,-1 2,-1 1,0 2,-1 2,-1l0 0c1,0 2,-1 2,-1l0 0c1,0 2,-1 2,-1l0 0c1,0 2,-1 2,-1l0 0c1,0 2,-1 3,-1l0 0c1,0 2,0 3,-1l0 0c1,0 2,0 3,-1 1,0 2,0 3,-1l0 0c1,0 2,0 3,-1l0 0c1,0 2,0 3,0l0 0c1,0 2,0 3,0l0 0c1,0 2,0 3,0l0 0c1,0 2,0 3,0l0 0c1,0 2,0 3,0l0 0c1,0 2,0 3,0l0 0c1,0 2,0 3,0 1,0 2,0 3,0l0 0c1,0 2,0 3,0l0 0c1,0 2,0 3,0l0 0c1,0 2,0 3,0l0 0c1,0 2,0 3,0l0 0c1,0 2,0 3,0l0 0c1,0 2,0 3,0l0 0c1,0 2,0 3,1l0 0c1,0 2,0 3,1 1,0 2,0 3,1l0 0c1,0 2,0 3,1l0 0c1,0 2,0 2,1l0 0c1,0 2,1 2,1l0 0c1,0 2,1 2,1l0 0c1,0 2,1 2,1l0 0c1,0 2,1 2,1 1,0 2,1 2,1l0 0c1,0 2,1 2,1l0 0c1,0 2,1 2,1 1,0 2,1 2,1l0 0c1,0 1,1 2,1l0 0c1,0 1,1 2,1l0 0c1,0 1,1 2,1 1,0 1,1 2,1l0 0c1,0 1,1 2,1l0 0c1,0 1,1 2,2l0 0c1,1 1,1 2,2l0 0c1,1 1,1 2,2 1,1 1,1 2,2l0 0c1,1 1,1 2,2 1,1 1,1 2,2 1,1 1,1 2,2l0 0c1,1 1,1 2,2l0 0c1,1 1,1 2,2 1,1 1,1 2,2 1,1 1,1 2,2l0 0c1,1 1,1 2,2l0 0c1,1 1,1 2,2l0 0c1,1 1,1 1,2 1,1 1,1 1,2l0 0c0,1 1,1 1,2l0 0c0,1 1,1 1,2l0 0c0,1 1,1 1,2l0 0c0,1 1,1 1,2l0 0c0,1 1,2 1,2 0,1 1,2 1,2 0,1 1,2 1,2 0,1 1,2 1,2 0,1 1,2 1,2 0,1 1,2 1,2 0,1 1,2 1,2 0,1 1,2 1,2 0,1 1,2 1,3l0 0c0,1 0,2 1,3 0,1 0,2 1,3 0,1 0,2 1,3 0,1 0,2 1,3 0,1 0,2 0,3 0,1 0,2 0,3 0,1 0,2 0,3 0,1 0,2 0,3 0,1 0,2 0,3 0,1 0,2 0,3 0,1 0,2 0,3l0 0 0 6195 0 0zm-106 -6300l0 0 0 0z"/>
  <path class="fil2" d="M10166 16891c0,58 -47,106 -106,106 -58,0 -106,-47 -106,-106l0 -957c0,-58 47,-106 106,-106 58,0 106,47 106,106 0,2 0,3 0,5l0 952z"/>
  <path class="fil0" d="M11013 19377l0 0c0,58 -47,106 -106,106 -58,0 -106,-47 -106,-106l0 0 0 0 0 -8840 0 0c0,-58 47,-106 106,-106 58,0 106,47 106,106l0 0 0 8840 0 0z"/>
  <path class="fil0" d="M8473 15564l0 0 0 730 0 0c0,58 -47,106 -106,106 -58,0 -106,-47 -106,-106l0 -2 0 -728 0 0 0 0 0 0 0 0c0,0 0,-1 0,-1l0 0 0 0 0 0 0 0 0 0 0 0 0 0 0 0 0 0 0 0 0 0c0,-1 0,-2 0,-3l0 0c0,-1 0,-2 0,-3l0 0c0,-1 0,-2 0,-3l0 0c0,-4 1,-9 2,-13l0 0c0,-1 0,-2 1,-2l0 0c0,-1 0,-2 1,-2l0 0c0,-1 0,-2 1,-2l0 0c0,-1 0,-1 1,-2l0 0c0,-1 0,-1 1,-2l0 0c0,-1 1,-1 1,-2l0 0c0,-1 1,-1 1,-2l0 0c0,-1 1,-1 1,-2l0 0c0,-1 1,-1 1,-2l0 0c0,-1 1,-1 1,-2l0 0c0,-1 1,-1 1,-2l0 0c0,-1 1,-1 1,-2l0 0c0,-1 1,-1 1,-2l0 0c0,-1 1,-1 1,-2l0 0c0,-1 1,-1 1,-2l0 0c0,-1 1,-1 1,-2l0 0c0,-1 1,-1 1,-2l0 0c0,-1 1,-1 1,-2l0 0c0,-1 1,-1 1,-2l0 0c0,-1 1,-1 1,-2l0 0c0,0 1,-1 1,-1l0 -1c0,0 1,-1 1,-1l0 0c0,0 1,-1 1,-1l0 0c0,0 1,-1 1,-1l0 0c0,0 1,-1 1,-1l0 0c0,0 1,-1 1,-1l0 0c0,0 1,-1 1,-1l1 -1 1 -1 1 -1 1 -1 1 0c0,0 1,-1 1,-1l1 0c0,0 1,-1 1,-1l0 0c1,0 1,-1 2,-1l1 0c0,0 1,-1 1,-1l1 -1 1 -1 1 -1 1 -1 1 0c0,0 1,-1 1,-1l1 -1 1 -1 1 -1c0,0 1,0 1,-1l1 0c0,0 1,0 1,-1l1 0 1 -1 1 -1c0,0 1,0 1,0l1 0 1 -1 1 0c1,0 1,0 2,-1l1 0c1,0 1,0 2,-1l1 0c0,0 1,0 1,0l1 0c0,0 1,0 1,0 1,0 1,0 2,0l1 0c1,0 1,0 2,0l1 0 1 0c0,0 1,0 1,0l1 0c1,0 1,0 2,0l1 0c1,0 1,0 2,0l0 0c1,0 2,0 3,0l0 0 1 0c1,0 1,0 2,0l0 0c1,0 2,0 3,0l0 0c1,0 2,0 3,0l0 0c1,0 2,0 3,0 58,0 106,47 106,106z"/>
  <path class="fil2" d="M10590 17237c0,58 -47,106 -106,106 -58,0 -106,-47 -106,-106l0 -1680c0,-58 47,-106 106,-106 58,0 106,47 106,106l0 1680z"/>
  <path class="fil2" d="M11013 17421c0,58 -47,106 -106,106 -58,0 -106,-47 -106,-106l0 -2076c0,-58 47,-106 106,-106 58,0 106,47 106,106l0 2076z"/>
  <path class="fil0" d="M11436 12399l0 0 0 730 0 0c0,58 -47,106 -106,106 -58,0 -106,-47 -106,-106l0 -2 0 -728 0 0 0 0 0 0 0 0c0,0 0,-1 0,-1l0 0 0 0 0 0 0 0 0 0 0 0 0 0 0 0 0 0 0 0 0 0c0,-1 0,-2 0,-3l0 0c0,-1 0,-2 0,-3l0 0c0,-1 0,-2 0,-3l0 0c0,-4 1,-9 2,-13l0 0c0,-1 0,-2 1,-2l0 0c0,-1 0,-2 1,-2l0 0c0,-1 0,-2 1,-2l0 0c0,-1 0,-1 1,-2l0 0c0,-1 0,-1 1,-2l0 0c0,-1 1,-1 1,-2l0 0c0,-1 1,-1 1,-2l0 0c0,-1 1,-1 1,-2l0 0c0,-1 1,-1 1,-2l0 0c0,-1 1,-1 1,-2l0 0c0,-1 1,-1 1,-2l0 0c0,-1 1,-1 1,-2l0 0c0,-1 1,-1 1,-2l0 0c0,-1 1,-1 1,-2l0 0c0,-1 1,-1 1,-2l0 0c0,-1 1,-1 1,-2l0 0c0,-1 1,-1 1,-2l0 0c0,-1 1,-1 1,-2l0 0c0,-1 1,-1 1,-2l0 0c0,-1 1,-1 1,-2l0 0c0,0 1,-1 1,-1l0 -1c0,0 1,-1 1,-1l0 0c0,0 1,-1 1,-1l0 0c0,0 1,-1 1,-1l0 0c0,0 1,-1 1,-1l0 0c0,0 1,-1 1,-1l0 0c0,0 1,-1 1,-1l1 -1 1 -1 1 -1 1 -1 1 0c0,0 1,-1 1,-1l1 0c0,0 1,-1 1,-1l0 0c1,0 1,-1 2,-1l1 0c0,0 1,-1 1,-1l1 -1 1 -1 1 -1 1 -1 1 0c0,0 1,-1 1,-1l1 -1 1 -1 1 -1c0,0 1,0 1,-1l1 0c0,0 1,0 1,-1l1 0 1 -1 1 -1c0,0 1,0 1,0l1 0 1 -1 1 0c1,0 1,0 2,-1l1 0c1,0 1,0 2,-1l1 0c0,0 1,0 1,0l1 0c0,0 1,0 1,0 1,0 1,0 2,0l1 0c1,0 1,0 2,0l1 0 1 0c0,0 1,0 1,0l1 0c1,0 1,0 2,0l1 0c1,0 1,0 2,0l0 0c1,0 2,0 3,0l0 0 1 0c1,0 1,0 2,0l0 0c1,0 2,0 3,0l0 0c1,0 2,0 3,0l0 0c1,0 2,0 3,0 58,0 106,47 106,106z"/>
  <path class="fil0" d="M11436 15353l0 0 0 4173 0 0 0 0c0,58 -47,106 -106,106 -58,0 -106,-47 -106,-106l0 0 0 0 0 -4173 0 0c0,-58 47,-106 106,-106 58,0 106,47 106,106z"/>
  <path class="fil0" d="M11859 15420l0 0 0 4254 0 0 0 0c0,58 -47,106 -106,106 -58,0 -106,-47 -106,-106l0 0 0 0 0 -4254c0,-58 47,-106 106,-106 58,0 106,47 106,106z"/>
  <path class="fil0" d="M12071 15633l0 0c0,-58 47,-106 106,-106 58,0 106,47 106,106l0 0 0 4142 0 0 0 0c0,58 -47,106 -106,106 -58,0 -106,-47 -106,-106l0 0 0 0 0 -4142z"/>
  <path class="fil0" d="M12494 15893l0 0c0,-58 47,-106 106,-106 58,0 106,47 106,106l0 0 0 3906 0 0 0 0c0,58 -47,106 -106,106 -58,0 -106,-47 -106,-106l0 0 0 0 0 -3906z"/>
  <path class="fil0" d="M13129 16364l0 0 0 3380 0 0 0 0c0,58 -47,106 -106,106 -58,0 -106,-47 -106,-106l0 0 0 0 0 -3380c0,-58 47,-106 106,-106 58,0 106,47 106,106z"/>
  <path class="fil0" d="M13552 19518l0 0c0,58 -47,106 -106,106 -58,0 -106,-47 -106,-106l0 0 0 0 0 -660 0 -2040c0,-58 47,-106 106,-106 58,0 106,47 106,106l0 0 0 2700 0 0z"/>
  <path class="fil2" d="M13975 17021l0 0 0 2091 0 0 0 0c0,58 -47,106 -106,106 -58,0 -106,-47 -106,-106l0 0 0 0 0 -2091c0,-58 47,-106 106,-106 58,0 106,47 106,106z"/>
  <path class="fil2" d="M14399 17361l0 0 0 1184 0 551 0 0 0 0c0,58 -47,106 -106,106 -58,0 -106,-47 -106,-106l0 0 0 0 0 -551 0 -1184c0,-58 47,-106 106,-106 58,0 106,47 106,106z"/>
  <path class="fil3" d="M14611 17502l0 0c0,-58 47,-106 106,-106 58,0 106,47 106,106l0 0 0 579 0 0 0 1c0,58 -47,106 -106,106 -58,0 -106,-47 -106,-106l0 -1 0 0 0 -579z"/>
  <path class="fil4" d="M15034 17404l0 0c0,-58 47,-106 106,-106 58,0 106,47 106,106l0 0 0 406 0 0c0,58 -47,106 -106,106 -58,0 -106,-47 -106,-106l0 0 0 0 0 -406z"/>
  <path class="fil2" d="M15245 19356l0 0c0,58 -47,106 -106,106 -58,0 -106,-47 -106,-106l0 0 0 0 0 -167c0,-58 47,-106 106,-106 58,0 106,47 106,106l0 0 0 167 0 0z"/>
  <path class="fil4" d="M15669 17303l0 0 0 251 0 0 0 0c0,58 -47,106 -106,106 -58,0 -106,-47 -106,-106l0 0 0 -251 0 0c0,-58 47,-106 106,-106 58,0 106,47 106,106z"/>
  <path class="fil4" d="M16092 17182l0 0 0 141 0 0 0 0c0,58 -47,106 -106,106 -58,0 -106,-47 -106,-106l0 0 0 0 0 -141 0 0c0,-58 47,-106 106,-106 58,0 106,47 106,106z"/>
  <path class="fil4" d="M16409 16963c58,0 106,47 106,106 0,58 -47,106 -106,106 -58,0 -106,-47 -106,-106 0,-58 47,-106 106,-106z"/>
  <path class="fil2" d="M13129 18745c0,58 -47,106 -106,106 -58,0 -106,-47 -106,-106l0 -2381c0,-58 47,-106 106,-106 58,0 106,47 106,106l0 2381z"/>
  <path class="fil3" d="M14293 17256c58,0 106,47 106,106l0 1184c0,58 -47,106 -106,106 -58,0 -106,-47 -106,-106l0 -1184c0,-58 47,-106 106,-106z"/>
  <path class="fil2" d="M14611 18082l0 0 0 0c0,58 47,106 106,106 58,0 106,-47 106,-106l0 0 0 0 0 1147 0 0 0 0c0,58 -47,106 -106,106 -58,0 -106,-47 -106,-106l0 0 0 -1147z"/>
  <path class="fil2" d="M13552 18858c0,58 -47,106 -106,106 -58,0 -106,-47 -106,-106l0 -2040c0,-58 47,-106 106,-106 58,0 106,47 106,106l0 2040z"/>
  <path class="fil2" d="M12706 18632c0,58 -47,106 -106,106 -58,0 -106,-47 -106,-106l0 -2739c0,-58 47,-106 106,-106 58,0 106,47 106,106l0 2739z"/>
  <path class="fil2" d="M12282 18483c0,58 -47,106 -106,106 -58,0 -106,-47 -106,-106l0 -2850c0,-58 47,-106 106,-106 58,0 106,47 106,106l0 2850z"/>
  <path class="fil2" d="M11859 18201c0,58 -47,106 -106,106 -58,0 -106,-47 -106,-106l0 -2781c0,-58 47,-106 106,-106 58,0 106,47 106,106l0 2781z"/>
  <path class="fil2" d="M11436 17910c0,58 -47,106 -106,106 -58,0 -106,-47 -106,-106l0 -2557c0,-58 47,-106 106,-106 58,0 106,47 106,106l0 2557z"/>
  <path class="fil1" d="M8363 11229c-822,-15 -1350,-312 -2086,-312 -334,0 -608,20 -907,78"/>
  <path class="fil1" d="M8367 11079c-822,-15 -1313,-312 -2049,-312 -334,0 -664,30 -963,88 98,-241 328,-407 593,-423 1332,-144 1470,-1269 2907,-1522 -360,480 -558,1067 -558,1667 0,207 58,340 69,501z"/>
  <ellipse class="fil1" cx="6876" cy="10423" rx="341" ry="78"/>
  <circle class="fil1" cx="9565" cy="9646" r="343"/>
  <path class="fil5" d="M8363 11229c-822,-15 -1350,-312 -2086,-312 -334,0 -608,20 -907,78 124,157 312,252 514,258l769 14c230,15 437,146 550,348 131,133 310,206 496,203 341,-5 620,-260 665,-588z"/>
  <path class="fil4" d="M6319 10768c736,0 1226,297 2049,312 -11,-161 -69,-295 -69,-501 0,-600 197,-1187 558,-1667 -1437,253 -1575,1378 -2907,1522 -265,15 -496,181 -593,423 299,-58 629,-88 963,-88zm558 -422c188,0 341,35 341,78 0,43 -153,78 -341,78 -188,0 -341,-35 -341,-78 0,-43 153,-78 341,-78z"/>
  <path class="fil4" d="M9565 9514c73,0 132,59 132,132 0,73 -59,132 -132,132 -73,0 -132,-59 -132,-132 0,-73 59,-132 132,-132zm-343 132c0,190 154,343 343,343 190,0 343,-154 343,-343 0,-190 -154,-343 -343,-343 -190,0 -343,154 -343,343z"/>
  <path class="fil5" d="M11224 19985l0 0c0,-1 0,-1 0,-2 1,-58 48,-104 106,-104 58,0 106,47 106,106l0 0 0 2023c0,58 -47,106 -106,106 -58,0 -106,-47 -106,-106l0 0 0 -2023z"/>
  <path class="fil5" d="M12071 20235l0 0c0,-1 0,-1 0,-2 1,-58 48,-104 106,-104 58,0 106,47 106,106l0 0 0 2023c0,58 -47,106 -106,106 -58,0 -106,-47 -106,-106l0 0 0 -2023z"/>
  <path class="fil6" d="M18061 22337l0 -5275 627 0 0 2029 2803 0 0 -2029 634 0 0 5275 -634 0 0 -2648 -2803 0 0 2648 -627 0zm5601 -1638c0,348 117,643 349,884 234,242 516,363 847,363 330,0 610,-121 841,-363 230,-241 346,-536 346,-884 0,-348 -116,-643 -346,-884 -231,-242 -511,-363 -841,-363 -333,0 -616,121 -848,363 -232,241 -348,536 -348,884zm-598 -2c0,-242 44,-471 133,-686 90,-214 219,-406 390,-574 171,-168 364,-296 580,-384 216,-87 446,-132 692,-132 240,0 467,44 682,133 215,90 409,219 585,390 171,166 300,355 390,570 89,215 133,443 133,682 0,241 -44,467 -133,680 -90,213 -219,402 -390,567 -176,173 -371,305 -589,397 -218,91 -444,136 -679,136 -243,0 -473,-45 -691,-135 -218,-90 -411,-219 -582,-387 -171,-173 -300,-365 -390,-577 -89,-211 -133,-438 -133,-681zm4462 1640l0 -3298 553 0 0 509c141,-211 312,-369 512,-472 199,-103 430,-155 691,-155 390,0 693,103 911,310 219,207 328,494 328,862l0 2244 -575 0 0 -1941c0,-334 -70,-582 -210,-744 -141,-162 -358,-243 -650,-243 -168,0 -322,31 -460,92 -138,61 -252,148 -344,261 -69,86 -119,186 -149,295 -31,111 -45,302 -45,577l0 1704 -561 0zm4118 0l0 -5585 568 0 0 3782 1586 -1495 752 0 -1644 1510 1791 1788 -788 0 -1698 -1741 0 1741 -568 0z"/>
 </g>
</svg>
